<svg class="snsBlog02" version="1.1" xmlns="http://www.w3.org/2000/svg" viewBox="0 0 34 34" xml:space="preserve">
	<style type="text/css">
		.snsBlog02 {display:inline-block;width:1em;height:1em;}
	</style>
    <path d="M19,14.1c-0.7,0-1.3,0.6-1.3,1.3c0,0.7,0.6,1.3,1.3,1.3s1.3-0.6,1.3-1.3v0C20.3,14.6,19.7,14.1,19,14.1z"/>
    <path d="M7.4,14.1c-0.7,0-1.3,0.6-1.3,1.3c0,0.7,0.6,1.3,1.3,1.3s1.3-0.6,1.3-1.3v0C8.7,14.6,8.1,14.1,7.4,14.1z"/>
    <path d="M28.3,3.1H5.7c-2.9,0-5.2,2.4-5.2,5.2c0,0,0,0,0,0v12.4c0,2.9,2.3,5.2,5.2,5.2c0,0,0,0,0,0h7.8l2.7,4.3 c0,0,0.1,0.1,0.1,0.1c0.2,0.4,0.8,0.6,1.2,0.3c0.1-0.1,0.3-0.2,0.3-0.3c0,0,0.1-0.1,0.1-0.1l2.7-4.3h7.8c2.9,0,5.2-2.4,5.2-5.2V8.3 C33.5,5.4,31.2,3.1,28.3,3.1z M7.8,18.4c-0.7,0-1.3-0.3-1.7-0.9v0.7h-2V9.8h2V13c0.5-0.5,1.1-0.7,1.7-0.8c2.7,0,2.9,3.1,2.9,3.1 C10.8,16.9,9.5,18.3,7.8,18.4C7.8,18.4,7.8,18.4,7.8,18.4L7.8,18.4z M14.2,12.8v5.5h-2v-5c0-1.7-0.9-1.7-0.9-1.7v-2 C14.3,9.6,14.2,12.8,14.2,12.8L14.2,12.8z M22.4,15.4c0,3.1-3.4,3.1-3.4,3.1c-1.7,0.2-3.2-1-3.3-2.7c0-0.1,0-0.3,0-0.4 c0-3.1,3.3-3.1,3.3-3.1c1.7-0.2,3.2,1,3.4,2.7C22.4,15.1,22.4,15.2,22.4,15.4L22.4,15.4z M29.9,18.1c0.1,1.6-1.1,3-2.7,3.2 c-0.1,0-0.2,0-0.3,0h-0.8v-1.8h0.5c0.7,0,1.3-0.6,1.3-1.3c0-0.1,0-0.1,0-0.2v-0.5c-0.5,0.5-1.1,0.8-1.8,0.8c-2.8,0-2.8-3-2.8-3 c-0.2-1.5,0.9-2.9,2.5-3.1c0.1,0,0.3,0,0.4,0c0.7,0,1.3,0.3,1.7,0.8v-0.6h2L29.9,18.1z"/>
    <path d="M26.8,14.1c-0.7,0-1.3,0.6-1.3,1.3c0,0.7,0.6,1.3,1.3,1.3s1.3-0.6,1.3-1.3v0C28.1,14.6,27.5,14.1,26.8,14.1 z"/>
</svg>
