<svg class="snsGithub01" xmlns="http://www.w3.org/2000/svg" viewBox="0 0 62 62">
    <style type="text/css">
        .snsGithub01 {display:inline-block;width:1em;height:1em}
		.snsGithub01 .st0 {fill:#fff}
	</style>
	<rect width="62" height="62"/>
	<path class="st0" d="M23,62c0.7-0.5,1.4-1.1,1.4-2.1c0-1.5,0-5.4,0-5.4s-1.2,0.2-2.9,0.2c-4.3,0-5.7-2.7-6.3-4.3 c-0.8-2-1.9-2.9-3.1-3.7c-0.7-0.5-0.9-1-0.1-1.2c3.8-0.7,4.8,4.3,7.4,5.1c1.8,0.6,4.2,0.3,5.3-0.4c0.2-1.5,1.3-2.9,2.2-3.6 c-6.5-0.6-10.4-2.9-12.4-6.5l-0.2-0.4l-0.5-1.1l-0.1-0.4c-0.6-1.8-0.9-3.9-0.9-6.3c0-4.2,1.3-5.7,3.1-7.9c-1.3-4.7,0.5-8,0.5-8 s2.8-0.6,8.1,3.2C27.3,18,35,17.9,38.6,19c2.2-1.5,6.3-3.5,8-3c0.4,0.7,1.4,2.8,0.6,7.4c0.6,1,3.5,3.1,3.5,9.2 c0,2.2-0.3,4.1-0.7,5.7L49.7,39c0,0-0.1,0.4-0.3,0.7l-0.2,0.4c-1.9,4.2-5.9,5.8-12.3,6.4c2.1,1.3,2.7,2.9,2.7,7.3s-0.1,5,0,6 c0,0.9,0.7,1.5,1.4,2H23z"/>
</svg>
