<svg class="snsGithub02" xmlns="http://www.w3.org/2000/svg" viewBox="0 0 62 62">
    <style type="text/css">
        .snsGithub02 {display:inline-block;width:1em;height:1em}
	</style>
	<path d="M31.1,3.5C15.5,3.5,2.8,16.1,2.8,31.8c0,12.4,8.1,23,19.4,26.7c1.5,0.2,1.9-0.6,1.9-1.3v-4.9c-7.9,1.7-9.6-3.8-9.6-3.8 c-1.3-3.2-3.2-4.1-3.2-4.1c-2.6-1.7,0.2-1.7,0.2-1.7c2.8,0.2,4.3,2.8,4.3,2.8c2.4,4.3,6.6,3,8.3,2.3c0.2-1.9,0.9-3,1.9-3.8 c-6.2-0.8-12.8-3.2-12.8-13.9c0-3,1.1-5.6,2.8-7.5c-0.4-0.8-1.3-3.6,0.2-7.5c0,0,2.4-0.8,7.7,2.8c2.3-0.6,4.7-0.9,7.2-0.9 s4.9,0.4,7.2,0.9C43.7,14.3,46,15,46,15c1.5,4,0.6,6.8,0.2,7.5c1.9,1.9,2.8,4.5,2.8,7.5C49,41,42.4,43.3,36.2,44 c0.9,0.9,1.9,2.6,1.9,5.3V57c0,0.8,0.6,1.7,1.9,1.3C51.2,54.6,59.2,44,59.2,31.6C59.3,16.1,46.7,3.5,31.1,3.5z"/>
</svg>
