<svg class="snsInstagram02" xmlns="http://www.w3.org/2000/svg" viewBox="0 0 62 62">
    <style type="text/css">
        .snsInstagram02 {display:inline-block;width:1em;height:1em}
	</style>
	<path d="M31,8.4c3.7-0.1,7.3,0,11,0.3c1.8,0,3.5,0.3,5.2,0.9c2.3,1.1,4.1,2.9,5.2,5.2c0.6,1.7,0.9,3.4,0.9,5.2 c0,2.7,0.3,3.7,0.3,11c0.1,3.7,0,7.3-0.3,11c0,1.8-0.3,3.5-0.9,5.2c-1.1,2.3-2.9,4.1-5.2,5.2c-1.7,0.6-3.4,0.9-5.2,0.9 c-2.7,0-3.7,0.3-11,0.3c-3.7,0.1-7.3,0-11-0.3c-1.8,0-3.5-0.3-5.2-0.9c-2.3-1.1-4.1-2.9-5.2-5.2C9,45.5,8.7,43.8,8.7,42 c0-2.7-0.3-3.7-0.3-11c-0.1-3.7,0-7.3,0.3-11c0-1.8,0.3-3.5,0.9-5.2c0.5-1.1,1.3-2.2,2.1-3.1c0.7-1.1,1.8-1.8,3.1-2.1 C16.5,9,18.2,8.7,20,8.7C23.6,8.4,27.3,8.3,31,8.4 M31,3.5c-3.8-0.1-7.5,0-11.3,0.3c-2.3,0-4.6,0.4-6.7,1.2 c-1.9,0.6-3.5,1.7-4.9,3.1C6.7,9.4,5.6,11.1,5,13c-1,2.1-1.4,4.4-1.2,6.7C3.5,23.5,3.4,27.2,3.5,31c-0.1,3.8,0,7.5,0.3,11.3 c0,2.3,0.4,4.6,1.2,6.7c0.6,1.9,1.7,3.5,3.1,4.9c1.4,1.4,3,2.5,4.9,3.1c2.1,0.8,4.4,1.2,6.7,1.2c3.8,0.3,7.5,0.4,11.3,0.3 c3.8,0.1,7.5,0,11.3-0.3c2.3,0,4.6-0.4,6.7-1.2c3.7-1.3,6.6-4.2,7.9-7.9c0.8-2.1,1.2-4.4,1.2-6.7c0-3.1,0.3-4,0.3-11.3 c0.1-3.8,0-7.5-0.3-11.3c0-2.3-0.4-4.6-1.2-6.7c-0.6-1.9-1.7-3.5-3.1-4.9c-1.4-1.4-3-2.4-4.9-3.1c-2.1-0.8-4.4-1.2-6.7-1.2 C38.5,3.5,34.8,3.4,31,3.5 M31,16.9c-7.6-0.1-13.9,6-14,13.6c0,0.1,0,0.3,0,0.4c0,7.8,6.3,14.1,14,14.1S45,38.8,45,31 S38.8,16.9,31,16.9C31,16.9,31,16.9,31,16.9 M31,40.2c-5,0.1-9.1-3.9-9.2-8.8c0-0.1,0-0.2,0-0.3c-0.1-5,3.9-9.1,8.8-9.2 c0.1,0,0.2,0,0.3,0c5-0.1,9.1,3.9,9.2,8.8c0,0.1,0,0.2,0,0.3c0.1,5-3.9,9.1-8.8,9.2C31.2,40.2,31.1,40.2,31,40.2 M45.7,13 c-1.9,0-3.4,1.5-3.4,3.4s1.5,3.4,3.4,3.4s3.4-1.5,3.4-3.4l0,0C49,14.5,47.5,13,45.7,13"/>
</svg>
