<svg class="snsKakaotalk02" version="1.1" xmlns="http://www.w3.org/2000/svg" viewBox="0 0 35.7 32.6" xml:space="preserve">
	<style type="text/css">
		.snsKakaotalk02 {display:inline-block;width:1.095092025em;height:1em;}
	</style>
	<path d="M13.2,15.4c0,0,0.2,0,0.5,0c0.3,0,0.5,0,0.5,0l-0.5-1.2L13.2,15.4z"/>
	<path d="M17.8,0.2C8.1,0.2,0.2,6.4,0.2,14.1c0,4.6,2.8,8.6,7.1,11.2c0.9,0.5,0.1,1.9,0.1,1.9l-3.5,4.6 c-0.1,0.2,0,0.4,0.1,0.5s0.2,0.1,0.4,0.1c0.1,0,0.2,0,0.3-0.1c0,0,2.2-0.4,5.2-1.9c2.5-1.1,4.8-2.6,4.8-2.6c1,0.1,2.1,0.2,3.2,0.2 c9.7,0,17.6-6.2,17.6-13.9C35.4,6.4,27.5,0.2,17.8,0.2z M8.9,18.1L8.9,18.1L8.9,18.1c0,0.7-0.6,1.3-1.2,1.3c-0.7,0-1.2-0.6-1.2-1.2 c0,0,0,0,0-0.1l0,0v-5.9H4.8l0,0c-0.6,0-1.1-0.5-1.1-1.1S4.2,10,4.8,10l0,0h5.5c0.6,0,1.1,0.5,1.1,1.1s-0.5,1.1-1.1,1.1H8.9 C8.9,12.2,8.9,18.1,8.9,18.1z M30.7,19.3c-0.4,0-0.8-0.2-1-0.5l0,0l-2.2-2.9l-0.4,0.4V18c0,0.7-0.6,1.2-1.2,1.2 c-0.5,0-1-0.3-1.2-0.8c-0.1,0.5-0.5,0.8-1,0.8l0,0H19l0,0c-0.5,0-0.9-0.3-1-0.8c0,0,0,0.1-0.1,0.1c-0.2,0.4-0.6,0.6-1.1,0.6l0,0 c-0.1,0-0.1,0-0.2,0l0,0c-0.1,0-0.1,0-0.2,0l0,0c-0.1,0-0.1,0-0.2-0.1l0,0c-0.1,0-0.1-0.1-0.2-0.1l0,0c-0.1,0-0.1-0.1-0.1-0.1l0,0 c-0.1-0.2-0.2-0.3-0.3-0.5l-0.4-0.9h-3.1l-0.4,0.9c-0.1,0.5-0.6,0.9-1.2,0.9c-0.7,0-1.2-0.6-1.2-1.2c0-0.2,0-0.3,0.1-0.5l0,0v-0.1 l3-6.6c0.1-0.6,0.6-1,1.2-1l0,0l0,0c0.6,0,1.1,0.4,1.2,1l3,6.5v-6l0,0v-0.1c0-0.7,0.6-1.2,1.2-1.2c0.7,0,1.2,0.6,1.2,1.2v0.1l0,0 v5.8h3.3c0.4,0,0.8,0.2,0.9,0.6v-6.4c0-0.7,0.6-1.2,1.2-1.2c0.7,0,1.2,0.6,1.2,1.2v1.6l2.4-2.4c0.2-0.3,0.6-0.4,0.9-0.4 c0.7,0,1.2,0.6,1.2,1.2c0,0.3-0.1,0.6-0.3,0.8l0,0l0,0c0,0,0,0-0.1,0.1L29,14.1l2.3,3.2l0,0c0.2,0.2,0.3,0.5,0.3,0.8 C31.9,18.7,31.4,19.3,30.7,19.3z"/>
</svg>
