<svg class="snsKakaotalk02" version="1.1" xmlns="http://www.w3.org/2000/svg" viewBox="0 0 34 34" xml:space="preserve">
	<style type="text/css">
		.snsKakaotalk02 {display:inline-block;width:1em;height:1em;}
	</style>
	<path d="M12.6,16.2c0,0,0.2,0,0.5,0s0.5,0,0.5,0L13.1,15L12.6,16.2z"/>
	<path d="M17,1.9c-9.1,0-16.5,5.8-16.5,13c0,4.3,2.6,8.1,6.7,10.5c0.8,0.5,0.1,1.8,0.1,1.8l-3.3,4.3c-0.1,0.2,0,0.4,0.1,0.5 c0.1,0.1,0.2,0.1,0.4,0.1c0.1,0,0.2,0,0.3-0.1c0,0,2.1-0.4,4.9-1.8c2.3-1,4.5-2.4,4.5-2.4c0.9,0.1,2,0.2,3,0.2 c9.1,0,16.5-5.8,16.5-13C33.5,7.7,26.1,1.9,17,1.9z M8.6,18.7L8.6,18.7L8.6,18.7c0,0.7-0.6,1.2-1.1,1.2c-0.7,0-1.1-0.6-1.1-1.1 c0,0,0,0,0-0.1l0,0v-5.5H4.8l0,0c-0.6,0-1-0.5-1-1s0.5-1,1-1l0,0h5.2c0.6,0,1,0.5,1,1s-0.5,1-1,1H8.6C8.6,13.2,8.6,18.7,8.6,18.7z M29.1,19.8c-0.4,0-0.8-0.2-0.9-0.5l0,0l-2.1-2.7L25.7,17v1.6c0,0.7-0.6,1.1-1.1,1.1c-0.5,0-0.9-0.3-1.1-0.8 c-0.1,0.5-0.5,0.8-0.9,0.8l0,0h-4.4l0,0c-0.5,0-0.8-0.3-0.9-0.8c0,0,0,0.1-0.1,0.1c-0.2,0.4-0.6,0.6-1,0.6l0,0c-0.1,0-0.1,0-0.2,0 l0,0c-0.1,0-0.1,0-0.2,0l0,0c-0.1,0-0.1,0-0.2-0.1l0,0c-0.1,0-0.1-0.1-0.2-0.1l0,0c-0.1,0-0.1-0.1-0.1-0.1l0,0 c-0.1-0.2-0.2-0.3-0.3-0.5L14.5,18h-2.9l-0.4,0.8c-0.1,0.5-0.6,0.8-1.1,0.8c-0.7,0-1.1-0.6-1.1-1.1c0-0.2,0-0.3,0.1-0.5l0,0V18 l2.8-6.2c0.1-0.6,0.6-0.9,1.1-0.9l0,0l0,0c0.6,0,1,0.4,1.1,0.9l2.8,6.1v-5.6l0,0v-0.1c0-0.7,0.6-1.1,1.1-1.1c0.7,0,1.1,0.6,1.1,1.1 v0.1l0,0v5.4h3.1c0.4,0,0.8,0.2,0.8,0.6v-6c0-0.7,0.6-1.1,1.1-1.1c0.7,0,1.1,0.6,1.1,1.1v1.5l2.3-2.3c0.2-0.3,0.6-0.4,0.8-0.4 c0.7,0,1.1,0.6,1.1,1.1c0,0.3-0.1,0.6-0.3,0.8l0,0l0,0c0,0,0,0-0.1,0.1l-1.8,1.8l2.2,3l0,0c0.2,0.2,0.3,0.5,0.3,0.8 C30.2,19.3,29.7,19.8,29.1,19.8z"/>
</svg>
