<svg class="snsKakaotalk01" version="1.1" xmlns="http://www.w3.org/2000/svg" viewBox="0 0 62 62" xml:space="preserve">
	<style type="text/css">
		.snsKakaotalk01 {display:inline-block;width:1em;height:1em;}
		.snsKakaotalk01 .st0 {fill:#FBED2C;}
		.snsKakaotalk01 .st1 {fill:#3C1D1D;}
	</style>
	<rect class="st0" width="62" height="62"/>
	<polygon class="st1" points="26.2,30.1 27.2,30.1 26.7,28.9 	"/>
	<path class="st1" d="M30.8,14.9c-9.7,0-17.6,6.2-17.6,13.9c0,4.6,2.8,8.6,7.1,11.2c0.9,0.5,0.1,1.9,0.1,1.9l-3.5,4.6 c-0.1,0.2,0,0.4,0.1,0.5c0.1,0.1,0.2,0.1,0.4,0.1c0.1,0,0.2,0,0.3-0.1c0,0,2.2-0.4,5.2-1.9c2.5-1.1,4.8-2.6,4.8-2.6 c1,0.1,2.1,0.2,3.2,0.2c9.7,0,17.6-6.2,17.6-13.9C48.4,21.1,40.5,14.9,30.8,14.9z M21.9,32.8L21.9,32.8 C21.9,32.8,21.9,32.8,21.9,32.8c0,0.7-0.6,1.3-1.2,1.3c-0.7,0-1.2-0.6-1.2-1.2c0,0,0,0,0-0.1h0v-5.9h-1.7v0c-0.6,0-1.1-0.5-1.1-1.1 c0-0.6,0.5-1.1,1.1-1.1v0h5.5c0.6,0,1.1,0.5,1.1,1.1c0,0.6-0.5,1.1-1.1,1.1h-1.4V32.8z M43.7,34c-0.4,0-0.8-0.2-1-0.5l0,0l-2.2-2.9 L40.1,31v1.7c0,0.7-0.6,1.2-1.2,1.2c-0.5,0-1-0.3-1.2-0.8c-0.1,0.5-0.5,0.8-1,0.8v0H32v0c-0.5,0-0.9-0.3-1-0.8c0,0,0,0.1-0.1,0.1 c-0.2,0.4-0.6,0.6-1.1,0.6h0c-0.1,0-0.1,0-0.2,0c0,0,0,0,0,0c-0.1,0-0.1,0-0.2,0c0,0,0,0,0,0c-0.1,0-0.1,0-0.2-0.1c0,0,0,0,0,0 c-0.1,0-0.1-0.1-0.2-0.1c0,0,0,0,0,0c-0.1,0-0.1-0.1-0.1-0.1c0,0,0,0,0,0c-0.1-0.2-0.2-0.3-0.3-0.5l-0.4-0.9h-3.1l-0.4,0.9 c-0.1,0.5-0.6,0.9-1.2,0.9c-0.7,0-1.2-0.6-1.2-1.2c0-0.2,0-0.3,0.1-0.5l0,0c0,0,0-0.1,0-0.1l3-6.6c0.1-0.6,0.6-1,1.2-1c0,0,0,0,0,0 c0,0,0,0,0,0c0.6,0,1.1,0.4,1.2,1l3,6.5v-6h0c0,0,0-0.1,0-0.1c0-0.7,0.6-1.2,1.2-1.2c0.7,0,1.2,0.6,1.2,1.2c0,0,0,0.1,0,0.1h0v5.8 h3.3c0.4,0,0.8,0.2,0.9,0.6V26c0-0.7,0.6-1.2,1.2-1.2c0.7,0,1.2,0.6,1.2,1.2v1.6l2.4-2.4c0.2-0.3,0.6-0.4,0.9-0.4 c0.7,0,1.2,0.6,1.2,1.2c0,0.3-0.1,0.6-0.3,0.8l0,0l0,0c0,0,0,0-0.1,0.1l-1.9,1.9l2.3,3.2l0,0c0.2,0.2,0.3,0.5,0.3,0.8 C44.9,33.4,44.4,34,43.7,34z"/>
	<path class="st0" d="M31.1,32.7C31.1,32.7,31.1,32.6,31.1,32.7c0-0.1,0-0.1,0-0.1c0,0,0-0.1,0-0.1h0c0,0,0-0.1,0-0.1v0l0,0l0,0 c0,0,0-0.1,0-0.1l-0.1-0.1v0.3h0.1c0,0.1-0.1,0.3-0.1,0.4c0,0.2,0,0.3,0.1,0.5c0.1-0.1,0.1-0.3,0.1-0.5 C31.1,32.8,31.1,32.7,31.1,32.7z"/>
	<path class="st0" d="M37.6,32.5v0.3c0,0.2,0,0.3,0.1,0.4c0-0.1,0-0.2,0-0.2C37.7,32.8,37.7,32.7,37.6,32.5z"/>
</svg>
