<svg class="snsMail01" xmlns="http://www.w3.org/2000/svg" viewBox="0 0 62 62">
	<style type="text/css">
		.snsMail01 {display:inline-block;width:1em;height:1em;}
		.snsMail01 .st0{fill:#3B5999;}
		.snsMail01 .st1{fill:#FFFFFF;}
	</style>
	<rect class="st0" width="62" height="62"/>
	<path class="st1" d="M47.9,39.4l-0.2-0.1c-0.7-0.4-1.6-0.5-2.4-0.5c-1.5,0-2.8,0.6-3.8,1.6c-1,1-1.5,2.3-1.5,3.7 c-0.1,1.5,1,2.8,2.4,2.9h0.1c1.1,0,2.1-0.5,2.8-1.3c0.2,0.9,1,1.3,1.8,1.3c2.1,0,4-1.8,4-5.4c0.1-3.4-2.6-6.2-5.9-6.3 c-0.1,0-0.4,0-0.5,0c-2.2,0-4.3,0.9-5.9,2.6c-1.5,1.6-2.2,3.7-2.2,5.9c0,1.8,0.6,3.7,2,5c1.2,1.2,2.9,1.8,4.8,1.8 c1.3,0,2.7-0.2,3.9-0.9l0.2-0.1L47,47.9l-0.4,0.2c-1,0.5-2,0.7-2.9,0.7c-2.7,0.1-4.9-2.1-5-4.8c0-0.2,0-0.4,0-0.6 c0-3.8,2.4-6.6,5.9-6.6c2.4-0.1,4.5,1.7,4.6,4.1c0,0.2,0,0.5,0,0.7c0,2.2-1.1,3.4-1.8,3.4l0,0c-0.1,0-0.2,0-0.2-0.1 c-0.1-0.1-0.2-0.5,0-1.8L47.9,39.4z M43,45.3c-0.9,0-1-0.7-1-1.2c-0.1-1.7,1.2-3.2,2.9-3.4c0.2,0,0.4,0,0.6,0l-0.4,2 C45.1,43.9,44,45.3,43,45.3L43,45.3z"/>
	<path class="st1" d="M35.2,41.8H14.1c-0.1,0-0.4-0.1-0.4-0.4V23.2L30.4,32l16.7-9.1v11.1c1,0,2,0.5,2.6,1.3v-17 c0-1.6-1.2-2.8-2.8-2.8H14.1c-1.6,0-2.8,1.2-2.8,2.8v23.2c0,1.6,1.2,2.8,2.8,2.8h20.9C34.8,43.5,34.9,42.7,35.2,41.8z"/>
</svg>
