<svg class="snsMail02" version="1.1" xmlns="http://www.w3.org/2000/svg" viewBox="0 0 34 34" xml:space="preserve">
	<style type="text/css">
		.snsMail02 {display:inline-block;width:1em;height:1em;}
	</style>
	<path d="M30.7,22.8l-0.2-0.1c-0.6-0.3-1.3-0.4-2-0.4c-1.2,0-2.3,0.5-3.1,1.3c-0.8,0.8-1.2,1.9-1.2,3 c-0.1,1.2,0.8,2.3,2,2.4h0.1c0.9,0,1.7-0.4,2.3-1.1c0.2,0.7,0.8,1.1,1.5,1.1c1.7,0,3.3-1.5,3.3-4.4c0.1-2.8-2.1-5.1-4.8-5.2 c-0.1,0-0.3,0-0.4,0c-1.8,0-3.5,0.7-4.8,2.1c-1.2,1.3-1.8,3-1.8,4.8c0,1.5,0.5,3,1.6,4.1c1,1,2.4,1.5,3.9,1.5c1.1,0,2.2-0.2,3.2-0.7 l0.2-0.1L30,29.8L29.7,30c-0.8,0.4-1.6,0.6-2.4,0.6c-2.2,0.1-4-1.7-4.1-3.9c0-0.2,0-0.3,0-0.5c0-3.1,2-5.4,4.8-5.4 c2-0.1,3.7,1.4,3.8,3.4c0,0.2,0,0.4,0,0.6c0,1.8-0.9,2.8-1.5,2.8l0,0c-0.1,0-0.2,0-0.2-0.1c-0.1-0.1-0.2-0.4,0-1.5L30.7,22.8z M26.7,27.6c-0.7,0-0.8-0.6-0.8-1c-0.1-1.4,1-2.6,2.4-2.8c0.2,0,0.3,0,0.5,0l-0.3,1.6C28.4,26.5,27.5,27.6,26.7,27.6L26.7,27.6z"/>
	<path d="M20.3,24.8H3c-0.1,0-0.3-0.1-0.3-0.3v-15l13.7,7.2l13.7-7.5v9.1c0.8,0,1.6,0.4,2.1,1.1V5.5 c0-1.3-1-2.3-2.3-2.3H3c-1.3,0-2.3,1-2.3,2.3v19c0,1.3,1,2.3,2.3,2.3h17.1C20,26.2,20.1,25.5,20.3,24.8z"/>
</svg>
