<svg class="snsShare01"  xmlns="http://www.w3.org/2000/svg" xmlns:xlink="http://www.w3.org/1999/xlink" viewBox="0 0 62 62">
	<style type="text/css">
		.snsShare01 {display:inline-block;width:1em;height:1em}
		.snsShare01 rect {fill:#FFFFFF;}
		.snsShare01 path {fill:#4C4C4C;}
	</style>
	<rect width="62" height="62"/>
	<path d="M41.8,25.4c-1.8,0-3.4-0.9-4.4-2.2l-11.7,6.5c0.1,0.4,0.2,0.9,0.2,1.4c0,0.3-0.1,0.6-0.1,1l12.4,7.6 c1-0.9,2.2-1.4,3.7-1.4c3.1,0,5.6,2.5,5.6,5.5c0,3-2.5,5.5-5.6,5.5s-5.6-2.5-5.6-5.5c0-0.5,0.1-1,0.2-1.4l-12.1-7.5 c-1,1-2.5,1.7-4.1,1.7c-3.1,0-5.6-2.5-5.6-5.5s2.5-5.5,5.6-5.5c1.4,0,2.8,0.6,3.7,1.4l12.2-6.8c0-0.1,0-0.2,0-0.3 c0-3,2.5-5.5,5.6-5.5s5.6,2.5,5.6,5.5C47.4,22.9,44.9,25.4,41.8,25.4z M42.1,46c1.3,0,2.4-1,2.4-2.3s-1-2.3-2.4-2.3 c-1.3,0-2.4,1-2.4,2.3C39.8,44.9,40.9,46,42.1,46z M20.7,28.6c-1.3,0-2.4,1-2.4,2.3c0,1.3,1,2.3,2.4,2.3c1.3,0,2.4-1,2.4-2.3 C23.1,29.6,22,28.6,20.7,28.6z M42.1,17.5c-1.3,0-2.4,1-2.4,2.3c0,1.3,1,2.3,2.4,2.3c1.3,0,2.4-1,2.4-2.3 C44.5,18.5,43.5,17.5,42.1,17.5z"/>
</svg>
