<?xml version="1.0" encoding="utf-8"?>
<svg class="snsTistory01"  xmlns="http://www.w3.org/2000/svg" xmlns:xlink="http://www.w3.org/1999/xlink" viewBox="0 0 62 62">
    <style type="text/css">
		.snsTistory01 {display:inline-block;width:1em;height:1em}
		.snsTistory01 .st0{fill:#EB531F;}
		.snsTistory01 .st1{fill:#FFFFFF;}
	</style>
	<rect x="0" class="st0" width="62" height="62"/>
	<path class="st1" d="M17.6,25.9c-3,0-5.3-2.4-5.3-5.3s2.4-5.3,5.3-5.3c3,0,5.3,2.4,5.3,5.3c0,0,0,0,0,0 C22.9,23.5,20.5,25.9,17.6,25.9z M31,52.7c-3,0-5.3-2.4-5.3-5.3c0-3,2.4-5.3,5.3-5.3c3,0,5.3,2.4,5.3,5.3l0,0 C36.3,50.3,34,52.7,31,52.7z M31,39.3c-3,0-5.3-2.4-5.3-5.3c0-3,2.4-5.3,5.3-5.3c3,0,5.3,2.4,5.3,5.3l0,0 C36.3,36.9,34,39.3,31,39.3C31,39.3,31,39.3,31,39.3L31,39.3z M31,25.9c-3,0-5.3-2.4-5.3-5.3c0-3,2.4-5.3,5.3-5.3 c3,0,5.3,2.4,5.3,5.3c0,0,0,0,0,0C36.3,23.5,34,25.9,31,25.9C31,25.9,31,25.9,31,25.9L31,25.9z M44.4,25.9c-3,0-5.3-2.4-5.3-5.3 c0-3,2.4-5.3,5.3-5.3c3,0,5.3,2.4,5.3,5.3C49.8,23.5,47.4,25.9,44.4,25.9C44.4,25.9,44.4,25.9,44.4,25.9L44.4,25.9z"/>
</svg>
