<svg id="레이어_1" data-name="레이어 1" xmlns="http://www.w3.org/2000/svg" viewBox="0 0 62.02 62.02"><rect width="62.02" height="62.02" style="fill:#29ace2"/><path d="M46.3,21.67S43.44,23.29,42.57,23A7.15,7.15,0,0,0,38,21.12,6.11,6.11,0,0,0,32,27.38a2.28,2.28,0,0,0,.16,1.18s-7.13.72-12.7-6.23a5.94,5.94,0,0,0,1.84,8,2.68,2.68,0,0,1-2.67-.54s-.28,4.45,4.86,6A4.46,4.46,0,0,1,20.8,36a5.7,5.7,0,0,0,5.65,4.15s-3.13,3.07-9,2.59c0,0,9.77,7.61,21.35-1.86,0,0,5.38-4.64,5.35-13.69a10.42,10.42,0,0,0,3-3,4.22,4.22,0,0,1-3.37.7S46.18,23.2,46.3,21.67Z" style="fill:#fff"/></svg>