<svg class="snsYutube01" version="1.1"  xmlns="http://www.w3.org/2000/svg" xmlns:xlink="http://www.w3.org/1999/xlink" viewBox="0 0 62 62" xml:space="preserve">
	<style type="text/css">
		.snsYutube01 {display:inline-block;width:1em;height:1em;}
		.snsYutube01 rect {fill:#EC1F23;}
		.snsYutube01 path {fill:#FFFFFF;}
	</style>
	<rect width="62" height="62"/>
	<path class="st1" d="M24.5,46.2c-0.5,0-1.1-0.1-1.5-0.4c-1-0.6-1.6-1.6-1.6-2.7V19.6c0-1.1,0.6-2.2,1.6-2.7c1-0.6,2.2-0.5,3.2,0l0,0 l19.3,11.4c1,0.6,1.5,1.6,1.5,2.7c0,1.1-0.5,2.1-1.5,2.7l-19.3,12C25.6,46,25,46.2,24.5,46.2z M26.4,23v16.4L40,31.1L26.4,23z"/>
</svg>