<svg class="calendar-alt-regular" xmlns="http://www.w3.org/2000/svg" viewBox="0 0 512 512">
	<style type="text/css">
		.calendar-alt-regular {display:inline-block;width:1em;height:1em;}
	</style>
	<path d="M131.5,222.8h14.3c9.1,0,16.5,7.4,16.5,16.6v14.3c0,9.1-7.4,16.5-16.5,16.5h-14.3c-9.1,0-16.5-7.4-16.5-16.5v-14.3 C114.9,230.2,122.3,222.8,131.5,222.8z"/>
	<path d="M209.7,222.8H224c9.1,0,16.5,7.4,16.5,16.6v14.3c0,9.1-7.4,16.5-16.5,16.5h-14.3c-9.1,0-16.5-7.4-16.5-16.5v-14.3 C193.2,230.2,200.6,222.8,209.7,222.8z"/>
	<path d="M287.9,222.8h14.3c9.1,0,16.5,7.4,16.5,16.5v14.3c0,9.1-7.4,16.5-16.5,16.5h-14.3c-9.1,0-16.5-7.4-16.5-16.5c0,0,0,0,0,0 v-14.3C271.4,230.2,278.8,222.8,287.9,222.8C287.9,222.8,287.9,222.8,287.9,222.8z"/>
	<path d="M366.2,222.8h14.3c9.1,0,16.5,7.4,16.5,16.6v14.3c0,9.1-7.4,16.5-16.5,16.5h-14.3c-9.1,0-16.5-7.4-16.5-16.5v-14.3 C349.6,230.2,357,222.8,366.2,222.8z"/>
	<path d="M131.5,299.4h14.3c9.1,0,16.5,7.4,16.5,16.6v14.3c0,9.1-7.4,16.5-16.5,16.5h-14.3c-9.1,0-16.5-7.4-16.5-16.5v-14.3 C114.9,306.8,122.3,299.4,131.5,299.4z"/>
	<path d="M209.7,299.4H224c9.1,0,16.5,7.4,16.5,16.6v14.3c0,9.1-7.4,16.5-16.5,16.5h-14.3c-9.1,0-16.5-7.4-16.6-16.5V316 C193.1,306.8,200.5,299.4,209.7,299.4C209.7,299.4,209.7,299.4,209.7,299.4z"/>
	<path d="M287.9,299.4h14.3c9.1,0,16.5,7.4,16.5,16.5v14.3c0,9.1-7.4,16.5-16.5,16.5h-14.3c-9.1,0-16.5-7.4-16.5-16.5c0,0,0,0,0,0 v-14.3C271.4,306.8,278.8,299.4,287.9,299.4z"/>
	<path d="M366.2,299.4h14.3c9.1,0,16.5,7.4,16.5,16.6v14.3c0,9.1-7.4,16.5-16.5,16.5h-14.3c-9.1,0-16.5-7.4-16.5-16.5v-14.3 C349.6,306.8,357,299.4,366.2,299.4z"/>
	<path d="M499.8,107.1h-76.1V86.8c0-8.6-7-15.6-15.7-15.5c-8.6,0-15.5,7-15.5,15.5v20.3h-69.2V86.8c0-8.6-7-15.6-15.7-15.5 c-8.6,0-15.5,7-15.5,15.5v20.3H223V86.8c0-8.6-7-15.6-15.7-15.5c-8.6,0-15.5,7-15.5,15.5v20.3h-69.1V86.8c0-8.6-7-15.6-15.7-15.5 c-8.6,0-15.5,7-15.5,15.5v20.3H12.2c-2.6,0-4.7,2.1-4.7,4.7v52.1c0,2.6,2.1,4.7,4.7,4.7h17.4v258.7c0,7.4,6,13.3,13.4,13.4h426.2 c7.4,0,13.3-6,13.4-13.4V168.6h17.4c2.6,0,4.7-2.1,4.7-4.7v-52.1C504.5,109.2,502.4,107.1,499.8,107.1z M441.8,391.5 c0,5.2-4.2,9.4-9.4,9.4H79.6c-5.2,0-9.4-4.2-9.4-9.4V178.1c0-5.2,4.2-9.4,9.4-9.4h352.8c5.2,0,9.4,4.2,9.4,9.4L441.8,391.5z"/>
</svg>
