<svg class="icoClip01" xmlns="http://www.w3.org/2000/svg" xmlns:xlink="http://www.w3.org/1999/xlink" viewBox="0 0 113 113" xml:space="preserve">
	<style type="text/css">
		.icoClip01 {display:inline-block;width:1em;height:1em;}
	</style>
	<path d="M61.7,0.5c-11.1,0-20.1,9-20.1,20.1l0,20.2l0,13.7l0,11.2c0,8.3,6.8,15.1,15.1,15.1c8.3,0,15.1-6.8,15.1-15.1 l0-10.3l0-14.7l0-13.1c0-1.8-1.5-3.3-3.3-3.3c-1.8,0-3.3,1.5-3.3,3.3l0,13.1l0,14.7l0,10.3c0,4.7-3.8,8.5-8.5,8.5 c-4.7,0-8.5-3.8-8.5-8.5l0-11.2l0-13.7l0-20.1c0-7.4,6.1-13.5,13.5-13.5c7.4,0,13.5,6,13.5,13.5l0,13.8l0,0c0,0.1,0,0.2,0,0.2 l0,19.9l0,32.7c0,10.3-8.4,18.6-18.6,18.6c-10.3,0-18.6-8.4-18.6-18.6l0-31.8l0-20.8c0-0.1,0-0.1,0-0.2l0,0l0-6.7 c0-1.8-1.5-3.3-3.3-3.3c-1.8,0-3.3,1.5-3.3,3.3l0,6.9l0,20.8l0,31.8c0,13.9,11.3,25.2,25.2,25.2c13.9,0,25.2-11.3,25.2-25.2l0-32.8 l0-19.9l0-14C81.7,9.6,72.7,0.6,61.7,0.5z"/>
</svg>
