<svg class="exclamation-circle_regular" xmlns="http://www.w3.org/2000/svg" viewBox="0 0 512 512">
	<style type="text/css">
		.exclamation-circle_regular {display:inline-block;width:1em;height:1em}
	</style>
	<path d="M255.1,316.8c-10.2,0-18.4,3-24.4,9c-6,6-9,13.8-9,23.4s3,17.4,9,23.4c6,6,14.1,9,24.4,9c10.2,0,18.4-3,24.4-9 c6-6,9-13.8,9-23.4s-3-17.4-9-23.4C273.5,319.8,265.3,316.8,255.1,316.8z M234.4,268.7c0.7,13.2,7.8,19.7,21.4,19.7 c13.6,0,20.7-6.6,21.4-19.7l10.7-125.3c0.4-4.7-1.7-7-6.3-7H230c-4.7,0-6.8,2.4-6.4,7L234.4,268.7z M256,5.4 C117.6,5.4,5.4,117.6,5.4,256c0,138.4,112.2,250.6,250.6,250.6c138.4,0,250.6-112.2,250.6-250.6C506.6,117.6,394.4,5.4,256,5.4z M256,463.3c-114.5,0-207.3-92.8-207.3-207.3c0-114.5,92.8-207.3,207.3-207.3c114.5,0,207.3,92.8,207.3,207.3 C463.3,370.5,370.5,463.3,256,463.3z"/>
</svg>
