<svg class="icoHeadset01" xmlns="http://www.w3.org/2000/svg" viewBox="0 0 26.4 26.4">
	<style type="text/css">
		.icoHeadset01 {display:inline-block;width:1em;height:1em}
	</style>
	<path d="M24.4,10.7c0-5.8-5-10.5-11.2-10.5C7,0.1,2,4.9,2,10.7v4.8v3c0,2.9,2.3,5.4,5.3,5.7c0.4,1.2,1.6,2,2.9,2 c1.7,0,3.1-1.3,3.1-3s-1.4-3-3.1-3c-1.3,0-2.5,0.8-2.9,1.9C5.5,21.9,4,20.3,4,18.5v-2.2h1.4v1.7c0,0.6,0.4,1,1,1s1-0.4,1-1v-5.4 c0-0.6-0.4-1-1-1s-1,0.4-1,1v1.7H4v-3.6C4,6,8.1,2.1,13.2,2.1c5.1,0,9.2,3.8,9.2,8.5v3.6H21v-1.7c0-0.6-0.4-1-1-1s-1,0.4-1,1v5.4 c0,0.6,0.4,1,1,1s1-0.4,1-1v-1.7h3.4V10.7z M10.3,22.3c0.6,0,1.1,0.4,1.1,1c0,0.5-0.5,1-1.1,1s-1.1-0.4-1.1-1 C9.2,22.7,9.7,22.3,10.3,22.3z"/>
</svg>
