<svg class="icoHeadset02" xmlns="http://www.w3.org/2000/svg"  viewBox="0 0 131.2 131.2">
	<style type="text/css">
		.icoHeadset02 {display:inline-block;width:1em;height:1em}
	</style>
	<path d="M130.8,65.8c-1.7-9.4-8.3-16.8-16.9-20.1C109,22.6,89.1,6.2,65.1,6.2c-24.1,0-44,16.6-48.8,40.1C8.6,49.7,2.6,56.7,0.5,65.6 c-0.9,3.6-0.2,9.6,0,10.8c0,0.1,0,0.2,0.1,0.3c2.6,12.5,13.8,21.6,26.6,21.6h1c0.1,0,0.3,0,0.4,0c3.2-0.3,5.5-3.2,5.5-6.8V50.8 c0-3.6-2.4-6.5-5.5-6.8c-0.1,0-0.3,0-0.4,0h-1c-0.7,0-1.4,0-2,0.1c5.3-17.7,21.1-29.8,40-29.8c18.9,0,34.8,12.2,40.1,29.8 c-0.4,0-0.7,0-1.1,0h-1c-0.1,0-0.3,0-0.4,0c-3.2,0.3-5.6,3.2-5.6,6.8v40.7c0,3.6,2.4,6.5,5.6,6.8c0.1,0,0.3,0,0.4,0h0.9 c-1.3,6.3-4.4,11.2-8.8,13.8c-1.2,0.7-3.8,1.7-7.1,2.2c-1.2-1.3-2.8-2.1-4.7-2.1h-9.5c-3.5,0-6.4,2.9-6.4,6.4c0,3.5,2.9,6.4,6.4,6.4 h9.5c2.2,0,4.1-1.1,5.3-2.8c4.1-0.5,8-1.7,10.6-3.3c7.1-4.2,11.7-12.1,13.1-22c9.1-2.9,16.4-10.6,18.4-20.3c0-0.1,0-0.2,0.1-0.3 C130.9,75.7,131.5,70,130.8,65.8z M26.1,90.3c-8.5-0.5-15.9-6.7-17.7-15.1c-0.3-2.3-0.5-6.2-0.1-7.8c2.1-8.8,9.3-15,17.8-15.5V90.3z M122.9,75.2c-1.8,8.4-9.2,14.6-17.7,15.1V51.9c8.8,0.5,16.2,6.8,17.7,15.3C123.4,69.7,123.1,73.7,122.9,75.2z"/>
</svg>
