<svg class="lightbulb-exclamation-solid" xmlns="http://www.w3.org/2000/svg" viewBox="0 0 342 512">
	<style type="text/css">
		.lightbulb-exclamation-solid {display:inline-block;width:0.66796875em;height:1em;}
	</style>
	 <path d="M170.8,508.5c35.2,0.1,64.7-26.7,68.2-61.7H102.7C106.1,481.8,135.6,508.6,170.8,508.5z"/>
	 <path d="M171,3.5C78.6,3.5,3.7,78.4,3.6,170.8c0,0,0,0,0,0l0,0c-0.1,31,8.5,61.3,24.8,87.7c17.4,29.6,70.3,94,70.3,134.4h0.3 l2.4,36.1h138.8l2.4-36.2h0.4c0-40.4,53.3-104.9,70.6-134.4c48.4-78.7,23.7-181.8-55-230.1C232.2,12.1,201.9,3.5,171,3.5z M149.6,99.3c2.1-1.7,4.8-2.4,7.5-2h27.7c2.6-0.4,5.2,0.2,7.2,1.8c2,2,1.8,4.8,1.7,10.1l-4.4,146c0,0.3-0.1,0.7-0.2,1 c-0.2,1.1-0.8,2.2-1.6,3c-0.5,0.5-1.6,1.4-6.9,1.4h-22.9c-1.7,0.1-3.4-0.8-4.2-2.3c-1.1-2-1.5-4.4-1.3-6.6l-4.4-142.4 C147.7,104.7,147.6,101.5,149.6,99.3L149.6,99.3z M170.8,327.1c-13.3,0-24.2-10.8-24.2-24.2c0-13.3,10.8-24.2,24.2-24.2 c13.3,0,24.2,10.8,24.2,24.2S184.2,327.1,170.8,327.1C170.8,327.1,170.8,327.1,170.8,327.1z"/>
</svg>
