<svg class="link-regular" xmlns="http://www.w3.org/2000/svg" viewBox="0 0 512 512">
	<style type="text/css">
		.link-regular {display:inline-block;width:1em;height:1em;}
	</style>
	<path d="M103.3,507.7C47.9,507.7,3,462.8,3,407.4c0-26.6,10.5-52,29.3-70.8l140.5-140.4c39.2-39,102.6-39,141.8,0 c10.9,10.9,10.9,28.5,0,39.3c-10.9,10.9-28.5,10.9-39.3,0l0,0c-17.5-17.4-45.7-17.4-63.2,0L71.7,375.8c-17.4,17.4-17.4,45.7,0,63.2 c17.4,17.4,45.7,17.4,63.2,0l66.2-66.2c10.9-10.9,28.5-10.9,39.3,0c10.9,10.9,10.9,28.5,0,39.3l0,0l-66.2,66.2 C155.4,497.1,129.9,507.7,103.3,507.7"/>
	<path d="M269.6,343.6c-26.6,0.1-52.1-10.4-70.9-29.2c-10.9-10.9-10.9-28.5-0.1-39.4c10.9-10.9,28.5-10.9,39.4-0.1 c17.5,17.4,45.7,17.4,63.2,0l139.9-139.8c17.4-17.4,17.4-45.7,0-63.2c-17.4-17.4-45.7-17.4-63.2,0l0,0l-65.7,65.7 c-10.9,10.9-28.5,10.9-39.3,0s-10.9-28.5,0-39.3l65.7-65.7c39.5-38.8,103-38.2,141.8,1.4c38.3,39,38.3,101.4,0,140.4L340.5,314.3 c-18.8,18.8-44.3,29.3-70.9,29.2"/>
</svg>
