<svg class="medal-solid" xmlns="http://www.w3.org/2000/svg" viewBox="0 0 428 512">
	<style type="text/css">
		.medal-solid {display:inline-block;width:0.8359375em;height:1em;}
	</style>
	 <path d="M395.2,188.3l9.6-61.1l-52.5-32.8l-24.9-56.6l-61.9,0.8L214,4.5l-51.6,34.2l-61.9-0.8L75.6,94.5l-52.5,32.8l9.6,61.1 L6.3,244.2l41.1,46.2l8,61.3l59.6,16.7l8.8,10.5v128.5l90.2-47.2l90.2,47.4V378.9l8.8-10.5l59.6-16.7l8-61.3l41.1-46.2L395.2,188.3 z M214,356.2c-78.7,0-142.5-63.8-142.5-142.5c0-78.7,63.8-142.5,142.5-142.5c78.7,0,142.5,63.8,142.5,142.5 C356.5,292.4,292.7,356.2,214,356.2z"/>
	 <polygon points="243.4,176.5 214,116.9 184.6,176.5 118.9,186.1 166.4,232.4 155.2,297.9 214,266.9 272.8,297.9 261.5,232.4 309.1,186.1 	"/>
</svg>
