<svg class="icoPhone01" xmlns="http://www.w3.org/2000/svg" viewBox="0 0 48 48">
	<style> 
		.icoPhone01 {display:inline-block;width:1em;height:1em}		
	</style>
	<path d="M19.5,45.1c-1.1,0-1.9-0.2-1.9-0.2l-0.1,0C10.1,42,2,26.8,1.6,26.1l-0.1-0.2C0,19.9,4.4,16.5,7,15.5l0.5-0.2l0.4,0.3 c5.2,3.2,5.9,9.6,5.9,9.8l0.1,0.7l-2.9,1.4l5.7,7.5l1.8-1.8h0.4c3.7,0,7.5,3.9,7.6,4.1l0.3,0.3l0,0.4C26.5,42.5,23.9,45.1,19.5,45.1 z M18.1,42.9c0.2,0,0.7,0.1,1.4,0.1c3.2,0,4.9-1.6,5.2-4.6c-1.1-1-3.4-2.9-5.5-3.1l-2.8,2.8L7.8,26.8l3.8-1.9 c-0.3-1.5-1.3-5.2-4.4-7.4c-1.3,0.7-4.9,3-3.8,7.7C4.2,26.7,11.7,40.4,18.1,42.9z"/> <path d="M24.8,32.2c-1,0-1.8-0.8-1.8-1.8v-3.2h-0.7c-2.4,0-4.4-2-4.4-4.4V7.5c0-2.4,2-4.4,4.4-4.4h20.3c2.4,0,4.4,2,4.4,4.4v15.2 c0,2.4-2,4.4-4.4,4.4H30.7l-4.5,4.5C25.8,32,25.3,32.2,24.8,32.2z M22.3,5.1c-1.3,0-2.4,1.1-2.4,2.4v15.2c0,1.3,1.1,2.4,2.4,2.4H25 v4.9l4.9-4.9h12.7c1.3,0,2.4-1.1,2.4-2.4V7.5c0-1.3-1.1-2.4-2.4-2.4H22.3z"/>
	<path d="M27.7,15.2c0,1.1-0.9,1.9-1.9,1.9c-1.1,0-1.9-0.9-1.9-1.9c0-1.1,0.9-1.9,1.9-1.9C26.8,13.3,27.7,14.2,27.7,15.2z"/>
	<path d="M34.4,15.2c0,1.1-0.9,1.9-1.9,1.9c-1.1,0-1.9-0.9-1.9-1.9c0-1.1,0.9-1.9,1.9-1.9C33.6,13.3,34.4,14.2,34.4,15.2z"/>
	<path d="M41.2,15.2c0,1.1-0.9,1.9-1.9,1.9c-1.1,0-1.9-0.9-1.9-1.9c0-1.1,0.9-1.9,1.9-1.9C40.3,13.3,41.2,14.2,41.2,15.2z"/>
</svg>
