<svg class="icoPhone02" xmlns="http://www.w3.org/2000/svg" viewBox="0 0 40 40">
	<style>
		.icoPhone02 {display:inline-block;width:1em;height:1em}
	</style>
	<path d="M27.5,38.6c-5.6,0-12.1-3.1-17.7-8.7l-0.2-0.2c-8-8-10.8-17.7-7-24.1C3.6,4,4.1,3.3,5,2.5 c0.6-0.5,1.3-0.7,2.1-0.7C8,1.9,8.8,2.4,9.4,3.1l4.9,6.9c0.9,1.3,0.8,3.2-0.3,4.2c-0.7,0.7-1.8,1.8-2.4,2.3c0,0.6,0,2.3,0.8,4.1 c0.6,1.5,1.5,2.8,2.6,3.9l0.2,0.2c1.1,1.1,2.4,2,3.9,2.6l0,0c1.8,0.7,3.4,0.8,4.1,0.8c0.5-0.5,1.6-1.7,2.3-2.4 c1.1-1.1,2.9-1.3,4.2-0.3l6.9,4.9c0.7,0.5,1.2,1.3,1.3,2.2c0.1,0.8-0.1,1.5-0.7,2.1c-0.8,0.9-1.5,1.4-3.1,2.4 C32.1,38,29.9,38.6,27.5,38.6z"/>
	<path d="M29.1,1.1c-0.8,0-1.5,0.7-1.5,1.5s0.7,1.5,1.5,1.5h4.5L26,11.7c-0.6,0.6-0.6,1.5,0,2.1c0.3,0.3,0.7,0.4,1.1,0.4 s0.8-0.1,1.1-0.4l7.5-7.5v4.5c0,0.8,0.7,1.5,1.5,1.5s1.5-0.7,1.5-1.5V1.1H29.1z"/>
</svg>
