<svg class="icoPhone04" xmlns="http://www.w3.org/2000/svg" viewBox="0 0 30 30">
	<style type="text/css">
		.icoPhone04 {display:inline-block;width:1em;height:1em}
	</style>
	<path d="M7.4,22.6L7.4,22.6C1.1,16.2-1.2,8.5,1.8,3.4C2.5,2.2,3,1.6,3.7,1c0.4-0.4,0.9-0.5,1.5-0.5c0.6,0.1,1.2,0.4,1.6,1l4,5.5
	c0.7,1,0.6,2.3-0.2,3.1c-0.6,0.6-1.5,1.5-2,1.9c0,0.5,0,1.9,0.6,3.4c0.5,1.2,1.2,2.3,2.1,3.2l0.2,0.2c0.9,0.9,2,1.6,3.2,2.1l0,0
	c1.5,0.6,2.9,0.7,3.4,0.6c0.4-0.4,1.3-1.4,1.9-2c0.8-0.8,2.2-0.9,3.1-0.2l5.5,3.9c0.5,0.4,0.9,1,0.9,1.6c0.1,0.6-0.1,1.1-0.5,1.5
	c-0.6,0.7-1.2,1.1-2.5,1.9c-1.4,0.9-3.2,1.3-5,1.3C17.1,29.5,12,27.1,7.4,22.6 M8.6,11.8L8.6,11.8L8.6,11.8z"/>
</svg>
