<svg class="search-regular" xmlns="http://www.w3.org/2000/svg" viewBox="0 0 512 512">
	<style type="text/css">
		.search-regular {display:inline-block;width:1em;height:1em;}
	</style>
	<path d="M505.5,447.7L376,318.2c-4.2-4.2-9.8-6.5-15.8-6.5h-15.1c25.6-32.7,40.8-73.9,40.8-118.7c0-106.6-86.4-193-193-193 S0,86.3,0,192.9s86.4,193,193,193c44.8,0,86-15.2,118.7-40.8v15.1c0,5.9,2.3,11.6,6.5,15.8l129.5,129.5c8.7,8.7,22.8,8.7,31.4,0 l26.3-26.3C514.2,470.5,514.2,456.4,505.5,447.7z M193,311.7c-65.6,0-118.7-53.1-118.7-118.7c0-65.6,53.1-118.7,118.7-118.7 c65.6,0,118.7,53.1,118.7,118.7C311.7,258.5,258.7,311.7,193,311.7z"/>
</svg>
