<svg class="icoUser01" xmlns="http://www.w3.org/2000/svg" viewBox="0 0 101 101">
	<style type="text/css">
		.icoUser01 {display:inline-block;width:1em;height:1em;}
	</style>
	<path d="M80.5,45.7c-3-1.9-6.3-3.6-9.6-4.9c4.7-6.4,6-14.6,3.6-22.4C71.1,7.6,61.7,0.6,50.6,0.5l-0.1,0l0,0 C39.3,0.6,29.9,7.6,26.5,18.4c-2.5,7.9-1.1,16,3.6,22.4c-3.3,1.3-6.5,2.9-9.6,4.9c-5.8,3.7-9.3,10-9.3,17v33.2 c0,2.5,2.1,4.6,4.6,4.6h69.4c2.5,0,4.6-2.1,4.6-4.6V62.7C89.8,55.7,86.3,49.3,80.5,45.7z M39.8,47.4c1.8-0.4,3.1-1.8,3.5-3.6 c0.3-1.8-0.4-3.6-1.9-4.6c-7.1-5-7.8-12.6-6.1-18.1C37,15.7,41.9,9.8,50.5,9.7c7.1,0.1,13.1,4.6,15.2,11.4c1.7,5.4,1,13.1-6.1,18.1 c-1.5,1-2.2,2.9-1.9,4.6c0.3,1.8,1.7,3.2,3.5,3.6c5.1,1.2,9.9,3.2,14.4,6c3.2,2,5,5.5,5,9.2v28.6H20.4V62.7c0-3.8,1.9-7.2,5-9.2 C29.9,50.6,34.7,48.6,39.8,47.4z"/>
</svg>
